#!OML:ASF H:\Terrain\Patient Classification 1\Takeo\Monday\TakeoMonday.ASF
:FULLY-SPECIFIED
:DEGREES
329
root 17.8242 17.704 0.97436 -0.962852 -35.3696 -4.06508
lowerback 3.0591 6.97421 1.58733
upperback 1.87075 9.32673 -0.158257
thorax 0.503421 4.67751 -1.25077
lowerneck -14.3314 -4.23284 -2.6578
upperneck 3.3065 -5.73088 7.35638
head 3.59226 -2.50759 2.26515
rclavicle -3.12589e-014 3.18055e-015
rhumerus 70.194 44.9699 -43.9308
rradius 65.4152
rwrist -35.6151
rhand -43.4823 22.8976
rfingers 7.12502
rthumb -16.3228 -6.43549
lclavicle -3.12589e-014 3.18055e-015
lhumerus 20.4635 -14.889 52.1601
lradius 94.2386
lwrist 30.0156
lhand -34.4419 23.4055
lfingers 7.12502
lthumb -7.6061 53.2487
rfemur 8.56269 -4.97004 13.334
rtibia 34.9332
rfoot -0.298919 -33.7449
rtoes 1.48864
lfemur -11.3887 -6.08464 -18.0543
ltibia 32.0655
lfoot -13.1892 4.53312
ltoes -7.87388
330
root 17.8419 17.6991 0.934359 -0.708405 -36.241 -4.34011
lowerback 3.33679 6.94408 1.66958
upperback 1.77863 9.29334 -0.0834795
thorax 0.254402 4.658 -1.26423
lowerneck -14.4929 -4.0658 -2.56853
upperneck 3.34288 -5.52072 7.30498
head 3.61429 -2.40132 2.24906
rclavicle 1.3418e-015 3.57812e-015
rhumerus 69.2865 45.0604 -44.1351
rradius 65.5713
rwrist -35.3691
rhand -42.2881 28.6348
rfingers 7.12502
rthumb -15.1727 -0.788897
lclavicle 1.3418e-015 3.57812e-015
lhumerus 20.0643 -15.4839 52.6327
lradius 94.2774
lwrist 29.7987
lhand -34.1038 23.5182
lfingers 7.12502
lthumb -7.27974 53.373
rfemur 8.21982 -4.59574 13.5643
rtibia 34.8354
rfoot -1.21327 -33.5624
rtoes 2.05553
lfemur -11.4799 -5.55191 -17.704
ltibia 31.9768
lfoot -13.1385 4.66531
ltoes -6.16615
331
root 17.8547 17.7028 0.904873 -1.06537 -37.1651 -3.74315
lowerback 3.42692 6.89142 0.991195
upperback 1.88522 9.20235 -0.200015
thorax 0.223862 4.60767 -1.02516
lowerneck -14.9117 -3.76953 -2.2327
upperneck 3.40302 -5.17536 7.15631
head 3.6686 -2.22405 2.17106
rclavicle 3.38182e-014 -3.97569e-015
rhumerus 68.6976 45.137 -44.3551
rradius 65.5624
rwrist -34.9061
rhand -41.908 24.8043
rfingers 7.12502
rthumb -14.8065 -4.64669
lclavicle 3.38182e-014 -3.97569e-015
lhumerus 19.8301 -15.7242 52.9751
lradius 94.1556
lwrist 30.092
lhand -33.8574 22.3115
lfingers 7.12502
lthumb -7.04192 52.1744
rfemur 7.99621 -4.30507 12.8975
rtibia 34.8084
rfoot -1.632 -33.2322
rtoes 0.465745
lfemur -11.3614 -5.10301 -18.2016
ltibia 31.8325
lfoot -13.1874 5.11088
ltoes -6.78863
332
root 17.8695 17.7116 0.875685 -1.47998 -38.0909 -2.95701
lowerback 3.44496 6.86454 0.196578
upperback 1.94134 9.14164 -0.336795
thorax 0.168939 4.57098 -0.739617
lowerneck -14.9964 -3.48878 -1.93984
upperneck 3.24097 -4.82935 6.95365
head 3.60303 -2.06191 2.08943
rclavicle 6.25923e-014 -4.37326e-015
rhumerus 68.0535 45.2683 -44.405
rradius 65.6396
rwrist -34.3773
rhand -42.4691 23.725
rfingers 7.12502
rthumb -15.347 -5.68549
lclavicle 6.25923e-014 -4.37326e-015
lhumerus 19.626 -16.0305 53.3486
lradius 94.0552
lwrist 30.6112
lhand -33.6 21.1323
lfingers 7.12502
lthumb -6.79343 51.0033
rfemur 7.65415 -4.19448 12.0511
rtibia 34.7833
rfoot -1.39483 -32.8403
rtoes -1.23046
lfemur -11.3614 -4.76424 -18.8734
ltibia 31.7175
lfoot -13.1323 5.70724
ltoes -6.65148
333
root 17.8841 17.7134 0.851688 -1.49339 -38.9515 -2.82723
lowerback 3.47772 6.86553 0.0563323
upperback 1.90477 9.13817 -0.375893
thorax 0.097813 4.56791 -0.712049
lowerneck -14.7476 -3.32258 -1.67224
upperneck 2.87877 -4.62325 6.7743
head 3.43272 -1.97899 2.01266
rclavicle 1.10624e-013 -2.78299e-015
rhumerus 67.1969 45.2483 -44.4644
rradius 65.8038
rwrist -33.944
rhand -43.7845 18.4534
rfingers 7.12502
rthumb -16.6137 -10.8555
lclavicle 1.10624e-013 -2.78299e-015
lhumerus 19.4004 -16.6004 53.7702
lradius 94.0457
lwrist 30.792
lhand -33.255 20.8763
lfingers 7.12502
lthumb -6.46037 50.7577
rfemur 7.3595 -4.13002 11.7906
rtibia 34.7261
rfoot -1.50678 -32.6147
rtoes -2.14053
lfemur -11.3815 -4.48186 -18.9579
ltibia 31.676
lfoot -13.0219 6.23144
ltoes -5.79423
334
root 17.8987 17.7073 0.829186 -0.867946 -39.9195 -3.67848
lowerback 3.43455 6.84817 0.69237
upperback 1.90975 9.13473 -0.203857
thorax 0.197327 4.57085 -0.869007
lowerneck -14.6636 -3.14274 -1.52505
upperneck 2.31832 -4.37311 6.49735
head 3.60348 -1.89101 2.12328
rclavicle -2.63141e-014 5.56597e-015
rhumerus 66.5627 45.1642 -44.4592
rradius 65.9328
rwrist -33.5482
rhand -38.3176 36.4109
rfingers 7.12502
rthumb -11.3456 6.73783
lclavicle -2.63141e-014 5.56597e-015
lhumerus 19.0763 -17.0904 54.1543
lradius 94.1563
lwrist 30.6539
lhand -32.8553 21.3482
lfingers 7.12502
lthumb -6.07453 51.2411
rfemur 7.05273 -3.91914 12.4015
rtibia 34.6106
rfoot -1.98053 -32.4951
rtoes -1.86285
lfemur -11.4644 -3.88076 -18.1576
ltibia 31.7673
lfoot -13.1763 6.4863
ltoes -5.57901
335
root 17.9185 17.7037 0.801345 -0.223081 -40.8991 -4.36172
lowerback 3.35445 6.76015 1.10944
upperback 1.90871 9.02937 -0.00637826
thorax 0.270605 4.52085 -0.878489
lowerneck -14.9708 -2.88999 -1.45408
upperneck 2.63038 -4.05751 6.54188
head 3.35732 -1.71062 1.94833
rclavicle -4.12727e-014 -5.1684e-015
rhumerus 66.0268 45.1787 -44.4828
rradius 65.9937
rwrist -32.9973
rhand -40.8393 28.6488
rfingers 7.12502
rthumb -13.7767 -0.87507
lclavicle -4.12727e-014 -5.1684e-015
lhumerus 18.4186 -17.3488 54.7216
lradius 94.2781
lwrist 30.599
lhand -32.454 21.7478
lfingers 7.12502
lthumb -5.68709 51.6515
rfemur 6.61377 -3.78368 12.8241
rtibia 34.4146
rfoot -2.22679 -32.3423
rtoes -3.15984
lfemur -11.7769 -3.22362 -17.4936
ltibia 31.9664
lfoot -13.3815 6.60732
ltoes -5.30333
336
root 17.9357 17.7029 0.771305 -0.212642 -41.6952 -4.37189
lowerback 3.53308 6.65328 0.999447
upperback 1.93642 8.88457 0.0637895
thorax 0.16896 4.44625 -0.767809
lowerneck -15.1588 -2.69208 -1.62682
upperneck 2.68252 -3.77501 6.66038
head 3.39744 -1.56323 2.03184
rclavicle 3.09359e-014 -9.14409e-015
rhumerus 65.1214 45.1194 -44.6935
rradius 66.1238
rwrist -32.6315
rhand -41.1813 23.3449
rfingers 7.12502
rthumb -14.1063 -6.15629
lclavicle 3.09359e-014 -9.14409e-015
lhumerus 17.8062 -17.5817 55.5935
lradius 94.1353
lwrist 30.2368
lhand -32.0555 20.9888
lfingers 7.12502
lthumb -5.30234 50.9025
rfemur 6.4764 -3.77972 12.6431
rtibia 34.2168
rfoot -2.87538 -31.8744
rtoes -4.8609
lfemur -11.8702 -2.82214 -17.4524
ltibia 32.138
lfoot -13.5095 6.96916
ltoes -5.66795
337
root 17.9484 17.6996 0.740984 -0.525744 -42.5749 -4.22982
lowerback 3.83259 6.61331 0.833471
upperback 2.1052 8.82525 0.0675299
thorax 0.150023 4.41486 -0.69986
lowerneck -15.3848 -2.48174 -1.5667
upperneck 2.5946 -3.501 6.63469
head 3.39277 -1.4268 2.03374
rclavicle 6.82328e-014 -7.55382e-015
rhumerus 64.603 44.9004 -44.2052
rradius 66.5368
rwrist -32.9707
rhand -40.8677 22.1228
rfingers 7.12502
rthumb -13.8041 -7.39921
lclavicle 6.82328e-014 -7.55382e-015
lhumerus 17.5703 -17.8006 56.3017
lradius 94.0361
lwrist 29.7118
lhand -31.6753 20.1684
lfingers 7.12502
lthumb -4.93521 50.0909
rfemur 6.53492 -3.61664 12.3558
rtibia 34.1058
rfoot -3.80482 -31.2462
rtoes -3.61011
lfemur -11.6239 -2.40354 -17.555
ltibia 32.2116
lfoot -13.6034 7.48262
ltoes -6.18823
338
root 17.9703 17.7011 0.709955 -0.676293 -43.5799 -4.12489
lowerback 4.05751 6.58136 0.732596
upperback 2.23009 8.77794 0.0545865
thorax 0.140177 4.38997 -0.676891
lowerneck -15.4928 -2.24122 -1.39725
upperneck 2.31132 -3.19086 6.51475
head 3.3048 -1.28253 1.99325
rclavicle -4.53726e-014 -5.56597e-015
rhumerus 64.3948 44.7294 -43.4226
rradius 67.1122
rwrist -33.3979
rhand -40.8112 22.0347
rfingers 7.12502
rthumb -13.7497 -7.49096
lclavicle -4.53726e-014 -5.56597e-015
lhumerus 17.3496 -17.9927 56.7178
lradius 94.1535
lwrist 29.6723
lhand -31.3859 20.3889
lfingers 7.12502
lthumb -4.65578 50.3177
rfemur 6.29488 -3.53304 12.0701
rtibia 34.0241
rfoot -3.68014 -31.0027
rtoes -2.64278
lfemur -11.5217 -1.96914 -17.6146
ltibia 32.269
lfoot -13.6046 7.93747
ltoes -5.91717
339
root 18.0013 17.7024 0.671324 -0.379225 -44.5106 -4.2377
lowerback 4.23597 6.52529 0.665831
upperback 2.08768 8.70329 0.159798
thorax -0.132568 4.34968 -0.567438
lowerneck -15.2148 -2.03839 -1.57106
upperneck 1.77592 -2.86382 6.35962
head 3.44724 -1.15589 2.20114
rclavicle 2.04748e-014 -2.38542e-015
rhumerus 63.5712 44.7999 -43.315
rradius 67.5285
rwrist -33.4637
rhand -40.4322 22.1629
rfingers 7.12502
rthumb -13.3844 -7.38716
lclavicle 2.04748e-014 -2.38542e-015
lhumerus 16.8187 -18.2749 57.4059
lradius 94.174
lwrist 29.8166
lhand -30.9876 20.2296
lfingers 7.12502
lthumb -4.27117 50.1665
rfemur 5.68118 -3.5689 12.0115
rtibia 33.8888
rfoot -2.87074 -31.0521
rtoes -3.581
lfemur -11.8626 -1.62303 -17.4728
ltibia 32.3815
lfoot -13.4805 8.42399
ltoes -5.46267
340
root 18.027 17.697 0.639023 -0.0189648 -45.3831 -4.34079
lowerback 4.25032 6.47833 0.629951
upperback 1.93616 8.64169 0.227138
thorax -0.312896 4.31727 -0.492167
lowerneck -15.1282 -1.82278 -1.49675
upperneck 1.69051 -2.5719 6.13855
head 3.37963 -1.02389 2.13328
rclavicle -5.12864e-014 -4.37326e-015
rhumerus 62.3871 44.7896 -43.602
rradius 67.8109
rwrist -33.3182
rhand -40.3173 22.5434
rfingers 7.12502
rthumb -13.2737 -7.01391
lclavicle -5.12864e-014 -4.37326e-015
lhumerus 16.4528 -18.6758 57.9589
lradius 94.0698
lwrist 29.9112
lhand -30.5057 19.5086
lfingers 7.12502
lthumb -3.80579 49.4544
rfemur 5.10967 -3.56615 11.9573
rtibia 33.7097
rfoot -2.8345 -30.5145
rtoes -4.24822
lfemur -12.2684 -1.26308 -17.359
ltibia 32.5143
lfoot -13.4591 8.98057
ltoes -5.66916
